M48
METRIC,LZ,000.000
;FILE_FORMAT=3:3
;TYPE=PLATED
;Layer: PTH_Through
;EasyEDA v6.5.47, 2024-09-30 22:34:30
;bdf4dfcfd05a44bdb46dd20b3567a466,39c71444916b4af6a8c7195bd55d5f94,10
;Gerber Generator version 0.2
;Holesize 1 = 0.889 mm
T01C0.889
;Holesize 2 = 0.915 mm
T02C0.915
;Holesize 3 = 1.000 mm
T03C1.000
;Holesize 4 = 1.021 mm
T04C1.021
;Holesize 5 = 1.101 mm
T05C1.101
;Holesize 6 = 1.301 mm
T06C1.301
%
G05
G90
T01
X089154Y080137
X086614Y080137
X084074Y080137
X081534Y080137
X080391Y068072
X082931Y068072
X085471Y068072
X088011Y068072
X027813Y082550
X025273Y082550
X022733Y082550
X020193Y082550
X089154Y090805
X086614Y090805
X084074Y090805
X081534Y090805
X025654Y051435
X028194Y051435
X027559Y071628
X025019Y071628
X098933Y038735
T02
X030734Y051435
X022479Y071628
T03
X073748Y047498
X084748Y047498
T04
X029845Y060960
X027305Y060960
X024765Y060960
X022225Y060960
X019685Y060960
X094361Y058547
X091821Y058547
X089281Y058547
X086741Y058547
X084201Y058547
T05
X043307Y089154
X043307Y086614
X043307Y084074
X043307Y081534
X043307Y078994
X043307Y076454
X043307Y073914
X043307Y071374
X043307Y068834
X043307Y066294
X043307Y063754
X043307Y061214
X043307Y058674
X043307Y056134
X043307Y053594
X068072Y053467
X068072Y056007
X068072Y058547
X068072Y061087
X068072Y063627
X068072Y066167
X068072Y068707
X068072Y071247
X068072Y073787
X068072Y076327
X068072Y078867
X068072Y081407
X068072Y083947
X068072Y086487
X068072Y089027
T06
X099060Y044323
X099060Y049403
X028702Y041148
X033782Y041148
X089535Y047117
X089535Y042037
X089535Y044577
M30
