G04 Layer: BottomLayer*
G04 EasyEDA v6.5.47, 2024-09-30 22:34:30*
G04 bdf4dfcfd05a44bdb46dd20b3567a466,39c71444916b4af6a8c7195bd55d5f94,10*
G04 Gerber Generator version 0.2*
G04 Scale: 100 percent, Rotated: No, Reflected: No *
G04 Dimensions in millimeters *
G04 leading zeros omitted , absolute positions ,4 integer and 5 decimal *
%FSLAX45Y45*%
%MOMM*%

%AMMACRO1*21,1,$1,$2,0,0,$3*%
%ADD10C,0.6000*%
%ADD11C,0.4500*%
%ADD12C,0.8000*%
%ADD13C,0.7000*%
%ADD14C,1.5748*%
%ADD15R,1.5748X1.5748*%
%ADD16C,1.7000*%
%ADD17R,1.5748X1.7000*%
%ADD18C,2.2000*%
%ADD19MACRO1,2.0015X2.4994X-90.0000*%
%ADD20O,2.4999949999999997X1.9999959999999999*%
%ADD21C,1.6000*%

%LPD*%
D10*
X8788400Y6807200D02*
G01*
X8788400Y8253729D01*
X8383270Y8253729D01*
X8141970Y8012429D01*
D11*
X8915400Y8208619D02*
G01*
X8915400Y8013700D01*
X1968500Y8138363D02*
G01*
X2091486Y8138363D01*
X2146300Y8193176D01*
X2146300Y8296579D01*
X2228519Y8378799D01*
X2595625Y8378799D01*
X2657500Y8316925D01*
X2657500Y8255000D01*
X8915400Y9080500D02*
G01*
X8791600Y9080500D01*
X2781300Y8255000D02*
G01*
X2657500Y8255000D01*
X2019300Y8255000D02*
G01*
X2211070Y8446770D01*
X3595014Y8446770D01*
X3640988Y8400821D01*
X3640988Y8400821D02*
G01*
X4320666Y9080500D01*
X8153400Y9080500D01*
X8799931Y6808368D02*
G01*
X8801100Y6807200D01*
X6807200Y6362700D02*
G01*
X8269554Y6362700D01*
X8674100Y6767245D01*
X8674100Y8001000D01*
X8661400Y8013700D01*
X6807200Y7124700D02*
G01*
X6680047Y7251852D01*
X6680047Y7680096D01*
X6759930Y7759979D01*
X8153679Y7759979D01*
X8407400Y8013700D01*
X6807200Y7378700D02*
G01*
X7721600Y7378700D01*
X8293100Y6807200D01*
X6807200Y7632700D02*
G01*
X7721600Y7632700D01*
X8547100Y6807200D01*
X4330700Y7645400D02*
G01*
X3136900Y7645400D01*
X2527300Y8255000D01*
X4330700Y7391400D02*
G01*
X3136900Y7391400D01*
X2273300Y8255000D01*
X6807200Y8648700D02*
G01*
X7975600Y8648700D01*
X8407400Y9080500D01*
X2565400Y5143500D02*
G01*
X2689199Y5143500D01*
X4330700Y5867400D02*
G01*
X3351199Y5867400D01*
X2689199Y5205399D01*
X2689199Y5143500D01*
X4330700Y6629400D02*
G01*
X3413099Y6629400D01*
X2879699Y7162800D01*
X4330700Y6883400D02*
G01*
X3926357Y7287742D01*
X2626842Y7287742D01*
X2501900Y7162800D01*
X4330700Y6375400D02*
G01*
X3035300Y6375400D01*
X2247900Y7162800D01*
X9893300Y3873500D02*
G01*
X9893300Y3997299D01*
X7374813Y4749800D02*
G01*
X7227315Y4749800D01*
X6676085Y5301030D01*
X6676085Y5977585D01*
X6807200Y6108700D01*
X8953500Y4711700D02*
G01*
X8783472Y4711700D01*
X8953500Y4457700D02*
G01*
X9423400Y4457700D01*
X9906000Y4940300D01*
D12*
X8953500Y4203700D02*
G01*
X8712200Y4203700D01*
X7918958Y4996942D01*
X7918958Y5117337D01*
X7738948Y5297347D02*
G01*
X7435595Y5600700D01*
X6807200Y5600700D01*
X7918881Y5117414D02*
G01*
X7738948Y5297347D01*
X8296300Y5854700D02*
G01*
X7738948Y5297347D01*
X8674100Y5854700D02*
G01*
X8420100Y5854700D01*
X8420100Y5854700D02*
G01*
X8296300Y5854700D01*
X8799931Y6808368D02*
G01*
X8799931Y5854700D01*
X8928100Y5854700D02*
G01*
X9044431Y5854700D01*
X9182100Y5854700D01*
X9182100Y5854700D02*
G01*
X9436100Y5854700D01*
X8799931Y5854700D02*
G01*
X8928100Y5854700D01*
X8674100Y5854700D02*
G01*
X8799931Y5854700D01*
D10*
X8915400Y9080500D02*
G01*
X8915400Y8208619D01*
D13*
X1955800Y8115300D02*
G01*
X1955800Y6072936D01*
X2476500Y6096000D02*
G01*
X2222500Y6096000D01*
X2476500Y6096000D02*
G01*
X2730500Y6096000D01*
X2730500Y6096000D02*
G01*
X2984500Y6096000D01*
X2222500Y6096000D02*
G01*
X1968500Y6096000D01*
X2819400Y5026913D02*
G01*
X2819400Y4953000D01*
X2438400Y4953000D01*
X2222500Y5168900D01*
X2222500Y6096000D01*
X2870200Y4114800D02*
G01*
X2819400Y4165600D01*
X2819400Y5026863D01*
D11*
X4330700Y5359400D02*
G01*
X3035300Y5359400D01*
X2819400Y5143500D01*
D13*
X2819400Y5026863D02*
G01*
X2819400Y5143500D01*
D12*
X3378200Y4114800D02*
G01*
X3378200Y4838700D01*
X3073400Y5143500D01*
D10*
X8791702Y9080500D02*
G01*
X8791702Y9140952D01*
X8648954Y9283700D01*
X2705100Y9283700D01*
X1803400Y8382000D01*
X1803400Y8216900D01*
X1881886Y8138413D01*
X1968500Y8138413D01*
D13*
X4470400Y5245100D02*
G01*
X4470400Y5179313D01*
X4430013Y5138928D01*
X3096513Y5138928D01*
X7950200Y5118100D02*
G01*
X7950200Y5024120D01*
X7435341Y4509262D01*
X5466841Y4509262D01*
X4730241Y5245862D01*
X4552441Y5245862D01*
X4478527Y5250434D01*
D11*
X4406900Y5613400D02*
G01*
X4546600Y5473700D01*
X4546600Y5249671D01*
X4523486Y5249671D01*
X3641090Y8400795D02*
G01*
X4269486Y7772400D01*
X4419600Y7772400D01*
X4533900Y7658100D01*
X4533900Y5816600D01*
X4330700Y5613400D01*
X9906000Y4432300D02*
G01*
X9906000Y4009999D01*
X9893300Y3997299D01*
X6807200Y5854700D02*
G01*
X6934708Y5982207D01*
X6934708Y6155436D01*
X6854443Y6235700D01*
X6743700Y6235700D01*
X6578600Y6400800D01*
X6578600Y7837678D01*
X6754622Y8013700D01*
X7594600Y8013700D01*
X8661400Y9080500D01*
X8474811Y4749800D02*
G01*
X8745372Y4749800D01*
X8783472Y4711700D01*
X2755900Y7162800D02*
G01*
X2879699Y7162800D01*
D14*
G01*
X2984500Y6096000D03*
G01*
X2730500Y6096000D03*
G01*
X2476500Y6096000D03*
G01*
X2222500Y6096000D03*
D15*
G01*
X1968500Y6096000D03*
D14*
G01*
X9436100Y5854700D03*
G01*
X9182100Y5854700D03*
G01*
X8928100Y5854700D03*
G01*
X8674100Y5854700D03*
D15*
G01*
X8420100Y5854700D03*
G01*
X8915400Y8013700D03*
D14*
G01*
X8661400Y8013700D03*
G01*
X8407400Y8013700D03*
G01*
X8153400Y8013700D03*
D15*
G01*
X8039100Y6807200D03*
D14*
G01*
X8293100Y6807200D03*
G01*
X8547100Y6807200D03*
G01*
X8801100Y6807200D03*
D15*
G01*
X2781300Y8255000D03*
D14*
G01*
X2527300Y8255000D03*
G01*
X2273300Y8255000D03*
G01*
X2019300Y8255000D03*
D15*
G01*
X8915400Y9080500D03*
D14*
G01*
X8661400Y9080500D03*
G01*
X8407400Y9080500D03*
G01*
X8153400Y9080500D03*
D15*
G01*
X2565400Y5143500D03*
D14*
G01*
X2819400Y5143500D03*
G01*
X3073400Y5143500D03*
D15*
G01*
X2755900Y7162800D03*
D14*
G01*
X2501900Y7162800D03*
G01*
X2247900Y7162800D03*
D15*
G01*
X9893300Y3873500D03*
D16*
G01*
X4330700Y8915400D03*
G01*
X4330700Y8661400D03*
G01*
X4330700Y8407400D03*
G01*
X4330700Y8153400D03*
G01*
X4330700Y7899400D03*
G01*
X4330700Y7645400D03*
G01*
X4330700Y7391400D03*
G01*
X4330700Y7137400D03*
G01*
X4330700Y6883400D03*
G01*
X4330700Y6629400D03*
G01*
X4330700Y6375400D03*
G01*
X4330700Y6121400D03*
G01*
X4330700Y5867400D03*
G01*
X4330700Y5613400D03*
D17*
G01*
X4330700Y5359400D03*
D16*
G01*
X6807200Y5346700D03*
G01*
X6807200Y5600700D03*
G01*
X6807200Y5854700D03*
G01*
X6807200Y6108700D03*
G01*
X6807200Y6362700D03*
G01*
X6807200Y6616700D03*
G01*
X6807200Y6870700D03*
G01*
X6807200Y7124700D03*
G01*
X6807200Y7378700D03*
G01*
X6807200Y7632700D03*
G01*
X6807200Y7886700D03*
G01*
X6807200Y8140700D03*
G01*
X6807200Y8394700D03*
G01*
X6807200Y8648700D03*
D17*
G01*
X6807200Y8902700D03*
D18*
G01*
X9906000Y4432300D03*
G01*
X9906000Y4940300D03*
G01*
X2870200Y4114800D03*
G01*
X3378200Y4114800D03*
D19*
G01*
X8953500Y4711700D03*
D20*
G01*
X8953500Y4203700D03*
G01*
X8953500Y4457700D03*
D21*
G01*
X7374813Y4749800D03*
G01*
X8474811Y4749800D03*
M02*
