G04 Layer: BottomSolderMaskLayer*
G04 EasyEDA v6.5.47, 2024-09-30 22:34:30*
G04 bdf4dfcfd05a44bdb46dd20b3567a466,39c71444916b4af6a8c7195bd55d5f94,10*
G04 Gerber Generator version 0.2*
G04 Scale: 100 percent, Rotated: No, Reflected: No *
G04 Dimensions in millimeters *
G04 leading zeros omitted , absolute positions ,4 integer and 5 decimal *
%FSLAX45Y45*%
%MOMM*%

%AMMACRO1*4,1,8,-0.8085,-0.8382,-0.8382,-0.8082,-0.8382,0.8085,-0.8085,0.8382,0.8082,0.8382,0.8382,0.8085,0.8382,-0.8082,0.8082,-0.8382,-0.8085,-0.8382,0*%
%AMMACRO2*4,1,8,-0.8085,-0.9008,-0.8382,-0.8708,-0.8382,0.8711,-0.8085,0.9008,0.8082,0.9008,0.8382,0.8711,0.8382,-0.8708,0.8082,-0.9008,-0.8085,-0.9008,0*%
%AMMACRO3*4,1,8,-1.2708,-1.0516,-1.3005,-1.0216,-1.3005,1.0218,-1.2708,1.0516,1.2705,1.0516,1.3005,1.0218,1.3005,-1.0216,1.2705,-1.0516,-1.2708,-1.0516,0*%
%ADD10C,1.6764*%
%ADD11MACRO1*%
%ADD12C,1.8016*%
%ADD13MACRO2*%
%ADD14C,2.3016*%
%ADD15MACRO3*%
%ADD16O,2.601595X2.101596*%
%ADD17C,1.7016*%

%LPD*%
D10*
G01*
X2984500Y6096000D03*
G01*
X2730500Y6096000D03*
G01*
X2476500Y6096000D03*
G01*
X2222500Y6096000D03*
D11*
G01*
X1968500Y6096000D03*
D10*
G01*
X9436100Y5854700D03*
G01*
X9182100Y5854700D03*
G01*
X8928100Y5854700D03*
G01*
X8674100Y5854700D03*
D11*
G01*
X8420100Y5854700D03*
G01*
X8915400Y8013700D03*
D10*
G01*
X8661400Y8013700D03*
G01*
X8407400Y8013700D03*
G01*
X8153400Y8013700D03*
D11*
G01*
X8039100Y6807200D03*
D10*
G01*
X8293100Y6807200D03*
G01*
X8547100Y6807200D03*
G01*
X8801100Y6807200D03*
D11*
G01*
X2781300Y8255000D03*
D10*
G01*
X2527300Y8255000D03*
G01*
X2273300Y8255000D03*
G01*
X2019300Y8255000D03*
D11*
G01*
X8915400Y9080500D03*
D10*
G01*
X8661400Y9080500D03*
G01*
X8407400Y9080500D03*
G01*
X8153400Y9080500D03*
D11*
G01*
X2565400Y5143500D03*
D10*
G01*
X2819400Y5143500D03*
G01*
X3073400Y5143500D03*
D11*
G01*
X2755900Y7162800D03*
D10*
G01*
X2501900Y7162800D03*
G01*
X2247900Y7162800D03*
D11*
G01*
X9893300Y3873500D03*
D12*
G01*
X4330700Y8915400D03*
G01*
X4330700Y8661400D03*
G01*
X4330700Y8407400D03*
G01*
X4330700Y8153400D03*
G01*
X4330700Y7899400D03*
G01*
X4330700Y7645400D03*
G01*
X4330700Y7391400D03*
G01*
X4330700Y7137400D03*
G01*
X4330700Y6883400D03*
G01*
X4330700Y6629400D03*
G01*
X4330700Y6375400D03*
G01*
X4330700Y6121400D03*
G01*
X4330700Y5867400D03*
G01*
X4330700Y5613400D03*
D13*
G01*
X4330700Y5359387D03*
D12*
G01*
X6807200Y5346700D03*
G01*
X6807200Y5600700D03*
G01*
X6807200Y5854700D03*
G01*
X6807200Y6108700D03*
G01*
X6807200Y6362700D03*
G01*
X6807200Y6616700D03*
G01*
X6807200Y6870700D03*
G01*
X6807200Y7124700D03*
G01*
X6807200Y7378700D03*
G01*
X6807200Y7632700D03*
G01*
X6807200Y7886700D03*
G01*
X6807200Y8140700D03*
G01*
X6807200Y8394700D03*
G01*
X6807200Y8648700D03*
D13*
G01*
X6807200Y8902687D03*
D14*
G01*
X9906000Y4432300D03*
G01*
X9906000Y4940300D03*
G01*
X2870200Y4114800D03*
G01*
X3378200Y4114800D03*
D15*
G01*
X8953500Y4711700D03*
D16*
G01*
X8953500Y4203700D03*
G01*
X8953500Y4457700D03*
D17*
G01*
X7374813Y4749800D03*
G01*
X8474811Y4749800D03*
M02*
