G04 Layer: TopSilkscreenLayer*
G04 EasyEDA v6.5.47, 2024-09-30 22:34:30*
G04 bdf4dfcfd05a44bdb46dd20b3567a466,39c71444916b4af6a8c7195bd55d5f94,10*
G04 Gerber Generator version 0.2*
G04 Scale: 100 percent, Rotated: No, Reflected: No *
G04 Dimensions in millimeters *
G04 leading zeros omitted , absolute positions ,4 integer and 5 decimal *
%FSLAX45Y45*%
%MOMM*%

%ADD10C,0.1524*%
%ADD11C,0.2540*%
%ADD12C,0.2032*%
%ADD13C,0.2030*%
%ADD14C,0.4000*%
%ADD15C,0.0190*%

%LPD*%
D10*
X2451100Y6363715D02*
G01*
X2451100Y6254750D01*
X2523743Y6363715D02*
G01*
X2523743Y6254750D01*
X2451100Y6311900D02*
G01*
X2523743Y6311900D01*
X2558034Y6342887D02*
G01*
X2568447Y6348221D01*
X2584195Y6363715D01*
X2584195Y6254750D01*
X8902700Y6122415D02*
G01*
X8902700Y6013450D01*
X8975343Y6122415D02*
G01*
X8975343Y6013450D01*
X8902700Y6070600D02*
G01*
X8975343Y6070600D01*
X9014968Y6096507D02*
G01*
X9014968Y6101587D01*
X9020047Y6112002D01*
X9025381Y6117336D01*
X9035795Y6122415D01*
X9056370Y6122415D01*
X9066784Y6117336D01*
X9072118Y6112002D01*
X9077197Y6101587D01*
X9077197Y6091173D01*
X9072118Y6080760D01*
X9061704Y6065265D01*
X9009634Y6013450D01*
X9082531Y6013450D01*
X8559800Y7745984D02*
G01*
X8559800Y7854950D01*
X8487156Y7745984D02*
G01*
X8487156Y7854950D01*
X8559800Y7797800D02*
G01*
X8487156Y7797800D01*
X8442452Y7745984D02*
G01*
X8385302Y7745984D01*
X8416290Y7787639D01*
X8400795Y7787639D01*
X8390381Y7792720D01*
X8385302Y7797800D01*
X8379968Y7813547D01*
X8379968Y7823962D01*
X8385302Y7839455D01*
X8395715Y7849870D01*
X8411209Y7854950D01*
X8426704Y7854950D01*
X8442452Y7849870D01*
X8447531Y7844789D01*
X8452865Y7834376D01*
X8369300Y7037831D02*
G01*
X8369300Y6928865D01*
X8441943Y7037831D02*
G01*
X8441943Y6928865D01*
X8369300Y6986015D02*
G01*
X8441943Y6986015D01*
X8528304Y7037831D02*
G01*
X8476234Y6965187D01*
X8554211Y6965187D01*
X8528304Y7037831D02*
G01*
X8528304Y6928865D01*
X2425700Y7987284D02*
G01*
X2425700Y8096250D01*
X2353056Y7987284D02*
G01*
X2353056Y8096250D01*
X2425700Y8039100D02*
G01*
X2353056Y8039100D01*
X2256281Y7987284D02*
G01*
X2308352Y7987284D01*
X2313431Y8034020D01*
X2308352Y8028939D01*
X2292604Y8023605D01*
X2277109Y8023605D01*
X2261615Y8028939D01*
X2251202Y8039100D01*
X2245868Y8054847D01*
X2245868Y8065262D01*
X2251202Y8080755D01*
X2261615Y8091170D01*
X2277109Y8096250D01*
X2292604Y8096250D01*
X2308352Y8091170D01*
X2313431Y8086089D01*
X2318765Y8075676D01*
X8559800Y8812784D02*
G01*
X8559800Y8921750D01*
X8487156Y8812784D02*
G01*
X8487156Y8921750D01*
X8559800Y8864600D02*
G01*
X8487156Y8864600D01*
X8452865Y8833612D02*
G01*
X8442452Y8828278D01*
X8426704Y8812784D01*
X8426704Y8921750D01*
X8392413Y8833612D02*
G01*
X8382000Y8828278D01*
X8366506Y8812784D01*
X8366506Y8921750D01*
X2794000Y5411215D02*
G01*
X2794000Y5302250D01*
X2866643Y5411215D02*
G01*
X2866643Y5302250D01*
X2794000Y5359400D02*
G01*
X2866643Y5359400D01*
X2973831Y5411215D02*
G01*
X2921761Y5302250D01*
X2900934Y5411215D02*
G01*
X2973831Y5411215D01*
X2413000Y6361684D02*
G01*
X2413000Y6470650D01*
X2340356Y6361684D02*
G01*
X2340356Y6470650D01*
X2413000Y6413500D02*
G01*
X2340356Y6413500D01*
X2279904Y6361684D02*
G01*
X2295652Y6366763D01*
X2300731Y6377178D01*
X2300731Y6387592D01*
X2295652Y6398005D01*
X2285238Y6403339D01*
X2264409Y6408420D01*
X2248915Y6413500D01*
X2238502Y6423913D01*
X2233168Y6434328D01*
X2233168Y6450076D01*
X2238502Y6460489D01*
X2243581Y6465570D01*
X2259329Y6470650D01*
X2279904Y6470650D01*
X2295652Y6465570D01*
X2300731Y6460489D01*
X2306065Y6450076D01*
X2306065Y6434328D01*
X2300731Y6423913D01*
X2290318Y6413500D01*
X2274824Y6408420D01*
X2253995Y6403339D01*
X2243581Y6398005D01*
X2238502Y6387592D01*
X2238502Y6377178D01*
X2243581Y6366763D01*
X2259329Y6361684D01*
X2279904Y6361684D01*
X9945370Y4131055D02*
G01*
X9945370Y4047997D01*
X9940036Y4032250D01*
X9934956Y4027170D01*
X9924541Y4022089D01*
X9914127Y4022089D01*
X9903713Y4027170D01*
X9898379Y4032250D01*
X9893300Y4047997D01*
X9893300Y4058412D01*
X9979659Y4110228D02*
G01*
X9989820Y4115562D01*
X10005568Y4131055D01*
X10005568Y4022089D01*
X4062984Y7137400D02*
G01*
X4171950Y7137400D01*
X4062984Y7137400D02*
G01*
X4062984Y7184136D01*
X4068063Y7199629D01*
X4073397Y7204963D01*
X4083811Y7210044D01*
X4099306Y7210044D01*
X4109720Y7204963D01*
X4114800Y7199629D01*
X4120134Y7184136D01*
X4120134Y7137400D01*
X4083811Y7244334D02*
G01*
X4078477Y7254747D01*
X4062984Y7270495D01*
X4171950Y7270495D01*
X7074915Y7124700D02*
G01*
X6965950Y7124700D01*
X7074915Y7124700D02*
G01*
X7074915Y7077963D01*
X7069836Y7062470D01*
X7064502Y7057136D01*
X7054088Y7052055D01*
X7038593Y7052055D01*
X7028179Y7057136D01*
X7023100Y7062470D01*
X7017765Y7077963D01*
X7017765Y7124700D01*
X7049008Y7012431D02*
G01*
X7054088Y7012431D01*
X7064502Y7007352D01*
X7069836Y7002018D01*
X7074915Y6991604D01*
X7074915Y6971029D01*
X7069836Y6960615D01*
X7064502Y6955281D01*
X7054088Y6950202D01*
X7043674Y6950202D01*
X7033259Y6955281D01*
X7017765Y6965695D01*
X6965950Y7017765D01*
X6965950Y6944868D01*
X9333484Y4635500D02*
G01*
X9442450Y4635500D01*
X9333484Y4635500D02*
G01*
X9333484Y4682236D01*
X9338563Y4697729D01*
X9343897Y4703063D01*
X9354311Y4708144D01*
X9369806Y4708144D01*
X9380220Y4703063D01*
X9385300Y4697729D01*
X9390634Y4682236D01*
X9390634Y4635500D01*
X9333484Y4752847D02*
G01*
X9333484Y4809997D01*
X9375140Y4779010D01*
X9375140Y4794504D01*
X9380220Y4804918D01*
X9385300Y4809997D01*
X9401047Y4815331D01*
X9411461Y4815331D01*
X9426956Y4809997D01*
X9437370Y4799584D01*
X9442450Y4784089D01*
X9442450Y4768595D01*
X9437370Y4752847D01*
X9432290Y4747768D01*
X9421875Y4742434D01*
X3073400Y4687315D02*
G01*
X3073400Y4578350D01*
X3073400Y4687315D02*
G01*
X3120136Y4687315D01*
X3135629Y4682236D01*
X3140963Y4676902D01*
X3146043Y4666487D01*
X3146043Y4650994D01*
X3140963Y4640579D01*
X3135629Y4635500D01*
X3120136Y4630165D01*
X3073400Y4630165D01*
X3247897Y4650994D02*
G01*
X3242818Y4635500D01*
X3232404Y4625086D01*
X3216909Y4619752D01*
X3211575Y4619752D01*
X3196081Y4625086D01*
X3185668Y4635500D01*
X3180334Y4650994D01*
X3180334Y4656073D01*
X3185668Y4671821D01*
X3196081Y4682236D01*
X3211575Y4687315D01*
X3216909Y4687315D01*
X3232404Y4682236D01*
X3242818Y4671821D01*
X3247897Y4650994D01*
X3247897Y4625086D01*
X3242818Y4598923D01*
X3232404Y4583429D01*
X3216909Y4578350D01*
X3206495Y4578350D01*
X3190747Y4583429D01*
X3185668Y4593844D01*
X8972041Y5144515D02*
G01*
X8961627Y5139436D01*
X8951213Y5129021D01*
X8945879Y5118607D01*
X8940800Y5102860D01*
X8940800Y5076952D01*
X8945879Y5061457D01*
X8951213Y5051044D01*
X8961627Y5040629D01*
X8972041Y5035550D01*
X8992870Y5035550D01*
X9003029Y5040629D01*
X9013443Y5051044D01*
X9018777Y5061457D01*
X9023858Y5076952D01*
X9023858Y5102860D01*
X9018777Y5118607D01*
X9013443Y5129021D01*
X9003029Y5139436D01*
X8992870Y5144515D01*
X8972041Y5144515D01*
X8987536Y5056123D02*
G01*
X9018777Y5025136D01*
X9058147Y5123687D02*
G01*
X9068561Y5129021D01*
X9084309Y5144515D01*
X9084309Y5035550D01*
X7920901Y5042915D02*
G01*
X7920901Y4933950D01*
X7920901Y5042915D02*
G01*
X7967637Y5042915D01*
X7983131Y5037836D01*
X7988465Y5032502D01*
X7993545Y5022087D01*
X7993545Y5011673D01*
X7988465Y5001260D01*
X7983131Y4996179D01*
X7967637Y4991100D01*
X7920901Y4991100D01*
X7957223Y4991100D02*
G01*
X7993545Y4933950D01*
X8027835Y5022087D02*
G01*
X8038249Y5027421D01*
X8053997Y5042915D01*
X8053997Y4933950D01*
G36*
X10172700Y4178300D02*
G01*
X10172700Y4114800D01*
X10258399Y4114800D01*
X10258399Y4178300D01*
G37*
G36*
X9613900Y4178300D02*
G01*
X9617100Y4175099D01*
X9617100Y4114800D01*
X9702800Y4114800D01*
X9702800Y4178300D01*
G37*
G36*
X2552700Y3848100D02*
G01*
X2552700Y3762400D01*
X2616200Y3762400D01*
X2616200Y3848100D01*
G37*
G36*
X2616200Y4406900D02*
G01*
X2612999Y4403699D01*
X2552700Y4403699D01*
X2552700Y4318000D01*
X2616200Y4318000D01*
G37*
D11*
X3111500Y6223000D02*
G01*
X2032000Y6223000D01*
X2100343Y6223000D02*
G01*
X2100343Y5969000D01*
X2032000Y6223000D02*
G01*
X1841500Y6223000D01*
X1841500Y5969000D01*
X3111500Y5969000D01*
X3111500Y6223000D01*
X9563100Y5981700D02*
G01*
X8483600Y5981700D01*
X8551943Y5981700D02*
G01*
X8551943Y5727700D01*
X8483600Y5981700D02*
G01*
X8293100Y5981700D01*
X8293100Y5727700D01*
X9563100Y5727700D01*
X9563100Y5981700D01*
D12*
X8026400Y7886700D02*
G01*
X8026400Y8140700D01*
X9042400Y8140700D01*
X9042400Y7886700D01*
X8851900Y7886700D01*
D13*
X8026400Y7886700D02*
G01*
X8851900Y7886700D01*
D12*
X8928100Y6934200D02*
G01*
X8928100Y6680200D01*
X7912100Y6680200D01*
X7912100Y6934200D01*
X8102600Y6934200D01*
D13*
X8928100Y6934200D02*
G01*
X8102600Y6934200D01*
D12*
X1892300Y8128000D02*
G01*
X1892300Y8382000D01*
X2908300Y8382000D01*
X2908300Y8128000D01*
X2717800Y8128000D01*
D13*
X1892300Y8128000D02*
G01*
X2717800Y8128000D01*
D12*
X8026400Y8953500D02*
G01*
X8026400Y9207500D01*
X9042400Y9207500D01*
X9042400Y8953500D01*
X8851900Y8953500D01*
D13*
X8026400Y8953500D02*
G01*
X8851900Y8953500D01*
D12*
X2946400Y5270500D02*
G01*
X3200400Y5270500D01*
X3200400Y5019039D01*
X2438400Y5019039D01*
X2438400Y5270500D01*
X2946400Y5270500D01*
X2374900Y7035800D02*
G01*
X2120900Y7035800D01*
X2120900Y7287260D01*
X2882900Y7287260D01*
X2882900Y7035800D01*
X2374900Y7035800D01*
X10020300Y3746500D02*
G01*
X9766300Y3746500D01*
X9766300Y4000500D01*
X10020300Y4000500D01*
X10020300Y3810000D01*
D13*
X10020300Y3746500D02*
G01*
X10020300Y3810000D01*
D12*
X4203700Y5422900D02*
G01*
X4203700Y5207000D01*
X4457700Y5207000D01*
X4457700Y9067800D01*
X4203700Y9067800D01*
X4203700Y9042400D01*
D13*
X4203700Y9042400D02*
G01*
X4203700Y5422900D01*
D12*
X6934200Y8839200D02*
G01*
X6934200Y9055100D01*
X6680200Y9055100D01*
X6680200Y5194300D01*
X6934200Y5194300D01*
X6934200Y5219700D01*
D13*
X6934200Y5219700D02*
G01*
X6934200Y8839200D01*
D11*
X10315956Y4779771D02*
G01*
X10315956Y4800600D01*
X10121900Y4800600D01*
X10071100Y4851400D01*
X10071100Y5029200D01*
X10121900Y5080000D01*
X10315956Y5080000D01*
X10315956Y4271771D02*
G01*
X10315956Y4292600D01*
X10121900Y4292600D01*
X10071100Y4343400D01*
X10071100Y4521200D01*
X10121900Y4572000D01*
X10315956Y4572000D01*
X9709043Y4178300D02*
G01*
X9709043Y5194300D01*
X10172700Y4178300D02*
G01*
X10172700Y4114800D01*
X10258381Y4114800D01*
X10258381Y4178300D01*
X9617118Y4178300D02*
G01*
X9617118Y4114800D01*
X9702800Y4114800D01*
X9702800Y4178300D01*
X10315996Y4178300D02*
G01*
X10315996Y5194300D01*
X9496003Y5194300D02*
G01*
X10315996Y5194300D01*
X9496003Y4178300D02*
G01*
X10315996Y4178300D01*
X9496003Y4178300D02*
G01*
X9496003Y5194300D01*
X3217672Y3704844D02*
G01*
X3238500Y3704844D01*
X3238500Y3898900D01*
X3289300Y3949700D01*
X3467100Y3949700D01*
X3517900Y3898900D01*
X3517900Y3704844D01*
X2709672Y3704844D02*
G01*
X2730500Y3704844D01*
X2730500Y3898900D01*
X2781300Y3949700D01*
X2959100Y3949700D01*
X3009900Y3898900D01*
X3009900Y3704844D01*
X2616200Y4311756D02*
G01*
X3632200Y4311756D01*
X2616200Y3848100D02*
G01*
X2552700Y3848100D01*
X2552700Y3762418D01*
X2616200Y3762418D01*
X2616200Y4403681D02*
G01*
X2552700Y4403681D01*
X2552700Y4318000D01*
X2616200Y4318000D01*
X2616200Y3704803D02*
G01*
X3632200Y3704803D01*
X3632200Y4524796D02*
G01*
X3632200Y3704803D01*
X2616200Y4524796D02*
G01*
X2616200Y3704803D01*
X2616200Y4524796D02*
G01*
X3632200Y4524796D01*
X9136499Y4965700D02*
G01*
X9136499Y3949700D01*
X8775700Y4965700D02*
G01*
X8775700Y3949700D01*
X9220200Y3949700D01*
X9220200Y4965700D01*
X8775700Y4965700D01*
D10*
X7567168Y4882418D02*
G01*
X8282406Y4882418D01*
X8282406Y4617178D01*
X7567168Y4617178D01*
X7567168Y4882418D01*
D14*
G75*
G01*
X8707120Y4734560D02*
G03*
X8707120Y4734306I-20000J-127D01*
M02*
